<?xml version="1.0" standalone="no"?>
<!DOCTYPE svg PUBLIC "-//W3C//DTD SVG 20010904//EN"
 "http://www.w3.org/TR/2001/REC-SVG-20010904/DTD/svg10.dtd">
<svg version="1.0" xmlns="http://www.w3.org/2000/svg"
 width="416.000000pt" height="416.000000pt" viewBox="0 0 416.000000 416.000000"
 preserveAspectRatio="xMidYMid meet">
<metadata>
Created by potrace 1.14, written by Peter Selinger 2001-2017
</metadata>
<g transform="translate(0.000000,416.000000) scale(0.100000,-0.100000)"
fill="#000000" stroke="none">
<path d="M2020 3632 c-19 -10 -80 -47 -135 -82 -270 -172 -569 -279 -916 -329
-146 -20 -183 -34 -222 -80 -42 -51 -51 -114 -43 -320 15 -418 65 -714 176
-1036 171 -493 495 -897 952 -1181 216 -135 295 -128 521 41 367 276 643 624
830 1046 166 374 246 736 272 1224 8 139 -4 184 -61 234 -37 33 -53 38 -229
71 -340 64 -668 190 -910 350 -126 84 -173 96 -235 62z m180 -250 c262 -172
606 -299 949 -349 l121 -17 0 -33 c0 -17 -5 -90 -11 -160 -72 -884 -377 -1516
-954 -1978 -210 -169 -226 -173 -354 -96 -639 385 -980 993 -1051 1875 -14
185 -13 396 3 400 6 2 67 11 135 20 145 19 350 70 488 121 135 50 360 161 469
233 50 32 95 56 100 53 6 -3 53 -34 105 -69z"/>
<path d="M1976 3098 c-192 -36 -367 -206 -418 -403 -9 -36 -11 -129 -10 -329
3 -236 1 -281 -12 -295 -23 -25 -74 -139 -91 -206 -20 -78 -21 -241 0 -320 29
-114 81 -202 174 -296 71 -71 101 -94 171 -127 114 -54 175 -67 300 -66 186 2
335 68 465 206 121 128 175 266 175 445 0 118 -17 190 -69 298 l-39 80 -4 290
c-4 263 -7 296 -26 356 -85 259 -351 418 -616 367z m244 -191 c67 -25 154
-109 190 -182 24 -47 25 -61 28 -259 2 -114 0 -206 -5 -204 -155 77 -229 98
-353 98 -124 0 -201 -22 -353 -98 -5 -2 -7 88 -5 199 3 197 4 206 30 261 84
181 277 257 468 185z m-35 -1087 c68 -66 68 -159 -1 -228 -33 -33 -34 -36 -34
-118 l0 -84 -72 0 -73 0 3 83 3 84 -34 34 c-68 68 -72 162 -10 224 39 38 60
45 126 42 50 -3 62 -8 92 -37z"/>
</g>
</svg>
